<?xml version="1.0" standalone="no"?>
<!DOCTYPE svg PUBLIC "-//W3C//DTD SVG 20010904//EN"
 "http://www.w3.org/TR/2001/REC-SVG-20010904/DTD/svg10.dtd">
<svg version="1.0" xmlns="http://www.w3.org/2000/svg"
 width="449.000000pt" height="134.000000pt" viewBox="0 0 449.000000 134.000000"
 preserveAspectRatio="xMidYMid meet">

<g transform="translate(0.000000,134.000000) scale(0.100000,-0.100000)"
fill="#000000" stroke="none">
<path d="M137 928 c-12 -445 -9 -808 5 -813 7 -3 369 -4 805 -3 l791 3 -269
273 c-148 150 -269 276 -269 280 0 4 52 61 116 127 63 66 174 182 246 258
l130 137 -774 0 -775 0 -6 -262z"/>
<path d="M1985 930 l260 -260 257 257 c142 142 258 259 258 260 0 2 -233 3
-517 3 l-518 0 260 -260z"/>
<path d="M3292 657 c-292 -292 -532 -535 -532 -540 0 -4 237 -7 527 -7 l526 0
266 271 c146 149 268 278 269 286 4 15 -495 523 -513 523 -6 0 -250 -240 -543
-533z"/>
</g>
</svg>
